<svg xmlns="http://www.w3.org/2000/svg" width="61" height="61" viewBox="0 0 61 61"><title>Tito</title> <g fill="none"><g fill="currentcolor"><polygon points="18 0 0 0 0 5 6 5 6.009 27 12 27 12 5 18 5"></polygon> <rect x="20" width="5" height="5"></rect> <rect x="20" y="7" width="5" height="20"></rect> <path d="M50.3 6.5C44.7 6.5 40 11.1 40 16.8 40 22.5 44.7 27 50.3 27 55.9 27 60.6 22.5 60.6 16.8 60.5 11.1 56 6.5 50.3 6.5ZM44.7 16.8C44.7 13.6 47.3 11 50.5 11 53.7 11 56.3 13.6 56.3 16.8 56.3 17.1 56.3 17.3 56.3 17.5 55.7 13.8 52.3 13.3 51.3 13.3 50.1 13.3 49.8 13.4 49.2 13.9L49.2 17.9C49.2 17.9 49.8 17.4 50.5 17.4 51.2 17.4 52.8 17.9 52.8 19.7 52.8 21.5 51.6 22.3 50.2 22.3 47.4 22.6 44.7 19.8 44.7 16.8Z"></path> <path d="M39 7L35 7 35 0.001 30 0 30 7 28 7 28 11 30 11 30 21C30 21 30 22.6 30 22.7 30 22.8 29.9 27.1 38 27L38 22.7C38 22.7 35 23.1 35 21L35 10.998 39 11 39 7Z"></path></g></g></svg>
